<svg width="120" height="120" viewBox="0 0 120 120" fill="none" xmlns="http://www.w3.org/2000/svg">
<path d="M60.0001 0.663086C92.7731 0.663086 119.341 27.2291 119.341 60.0001C119.341 60.0421 119.341 60.0841 119.341 60.1271H0.659058C0.659058 60.0841 0.659058 60.0421 0.659058 60.0001C0.659058 27.2291 27.2271 0.663086 60.0001 0.663086ZM60.0001 119.337C50.0071 119.337 40.5921 116.867 32.3301 112.505H87.6701C79.4081 116.867 69.9931 119.337 60.0001 119.337ZM119.303 62.1511C119.257 63.4271 119.172 64.6921 119.047 65.9461H0.953058C0.828058 64.6921 0.743058 63.4271 0.697058 62.1511H119.303ZM118.81 67.9711C118.616 69.4221 118.368 70.8561 118.071 72.2721H1.92906C1.63206 70.8561 1.38406 69.4221 1.19006 67.9711H118.81ZM117.068 76.3211C116.652 77.7781 116.182 79.2131 115.659 80.6221H4.34106C3.81806 79.2131 3.34806 77.7781 2.93206 76.3211H117.068ZM113.985 84.6711C113.273 86.2271 112.495 87.7461 111.656 89.2261H8.34406C7.50506 87.7461 6.72706 86.2271 6.01506 84.6711H113.985ZM105.72 97.8291C103.932 99.9871 101.994 102.017 99.9221 103.902H20.0781C18.0061 102.017 16.0681 99.9871 14.2801 97.8291H105.72Z" fill="black"/>
</svg>